<?xml version="1.0" encoding="utf-8"?>
<!-- Generator: Adobe Illustrator 27.5.0, SVG Export Plug-In . SVG Version: 6.00 Build 0)  -->
<svg version="1.1" id="Layer_1" xmlns="http://www.w3.org/2000/svg" xmlns:xlink="http://www.w3.org/1999/xlink" x="0px" y="0px"
	 viewBox="0 0 500 500" style="enable-background:new 0 0 500 500;" xml:space="preserve">
<rect style="fill:#FFFFFF;" width="500" height="500"/>
<g>
	
		<rect x="208.753" y="107.27" transform="matrix(-1.836970e-16 1 -1 -1.836970e-16 337.1478 -100.9291)" style="fill:#C4C1AB;" width="20.571" height="21.679"/>
	<path style="fill:#C4C1AB;" d="M270.621,171.274v7.679h-47.785v-7.679c0-9.39,7.084-17.106,16.213-18.091
		c0.651-0.074,1.32-0.112,1.99-0.112h11.379c0.781,0,1.562,0.056,2.306,0.149C263.704,154.354,270.621,161.996,270.621,171.274z"/>
	<path style="fill:#DB3328;" d="M303.066,214.001v194.653c0,6.805-5.522,12.346-12.346,12.346h-87.983
		c-6.805,0-12.346-5.541-12.346-12.346V214.001c0-18.761,14.205-34.211,32.445-36.182c1.301-0.149,2.621-0.223,3.96-0.223h39.864
		c1.339,0,2.659,0.074,3.96,0.223C288.88,179.79,303.066,195.241,303.066,214.001z"/>
	<rect x="190.397" y="243.746" style="fill:#1C2617;" width="112.667" height="111.104"/>
	<rect x="239.05" y="134.943" style="fill:#C4C1AB;" width="15.674" height="22.052"/>
	<path style="fill:#B5100B;" d="M331.294,152.956l-74.827-23.383l4.437-14.197l74.827,23.383c2.718,0.849,4.232,3.741,3.383,6.459
		l-1.361,4.356C336.903,152.291,334.012,153.805,331.294,152.956z"/>
	<path style="fill:#DB3328;" d="M339.286,93.826l-87.313,8.779l-0.508-5.054c-0.541-5.382,3.383-10.185,8.766-10.726l77.567-7.799
		c2.791-0.281,5.282,1.755,5.562,4.546l0.472,4.692C344.113,91.055,342.077,93.545,339.286,93.826z"/>
	<path style="fill:#D5DCED;" d="M267.776,118.116c0,8.757-5.392,16.269-13.052,19.356c-2.417,0.985-5.057,1.525-7.828,1.525
		s-5.41-0.539-7.846-1.525c-7.66-3.087-13.052-10.598-13.052-19.356c0-11.546,9.352-20.899,20.899-20.899
		C258.424,97.217,267.776,106.57,267.776,118.116z"/>
	<circle style="fill:#AFB9D2;" cx="246.889" cy="118.109" r="9.494"/>
	<path style="fill:#1C2617;" d="M208.203,103.279v29.656c0,1.58-1.134,2.938-2.696,3.198l-45.312,7.865
		c-2.12,0.353-4.053-1.264-4.053-3.421v-44.94c0-2.157,1.934-3.774,4.053-3.403l45.312,7.846
		C207.069,100.341,208.203,101.698,208.203,103.279z"/>
	<path style="opacity:0.08;fill:#FFFFFF;" d="M246.896,97.217v295.298c0,11.137-4.537,21.215-11.862,28.485h-32.296
		c-6.805,0-12.346-5.541-12.346-12.346V214.001c0-18.761,14.205-34.211,32.445-36.182v-6.545c0-9.39,7.084-17.106,16.213-18.091
		v-15.711c-7.66-3.087-13.052-10.598-13.052-19.356C225.997,106.57,235.35,97.217,246.896,97.217z"/>
	<path style="opacity:0.08;fill:#FFFFFF;" d="M208.203,103.279v14.837h-52.061V95.637c0-2.157,1.934-3.774,4.053-3.403l45.312,7.846
		C207.069,100.341,208.203,101.698,208.203,103.279z"/>
</g>
</svg>
